<svg id="svg" version="1.1" xmlns="http://www.w3.org/2000/svg" xmlns:xlink="http://www.w3.org/1999/xlink" width="400" height="75.37624079410823" viewBox="0, 0, 400,75.37624079410823"><g id="svgg"><path id="path0" d="M38.833 0.169 C 35.823 0.313,32.902 0.618,31.549 0.929 C 30.980 1.060,30.349 1.167,30.147 1.167 C 29.805 1.167,29.415 1.264,27.000 1.951 C 25.763 2.303,23.685 2.993,23.353 3.161 C 23.205 3.237,22.408 3.584,21.583 3.934 C 20.758 4.284,19.724 4.779,19.284 5.035 C 18.845 5.291,18.441 5.500,18.386 5.500 C 18.332 5.500,17.641 5.927,16.852 6.448 C 11.624 9.902,7.245 14.509,4.641 19.291 C 3.515 21.360,3.360 21.677,2.779 23.106 C 0.814 27.939,-0.040 32.594,0.034 38.083 L 0.083 41.750 6.833 41.796 C 10.546 41.822,13.752 41.802,13.958 41.752 C 14.333 41.660,14.333 41.658,14.333 37.994 C 14.333 26.544,20.260 17.762,30.500 14.038 C 34.124 12.720,35.158 12.635,48.710 12.539 L 60.671 12.455 60.627 6.269 L 60.583 0.083 50.917 0.068 C 45.600 0.059,40.162 0.105,38.833 0.169 M250.292 0.119 L 249.833 0.189 249.833 6.332 L 249.833 12.476 268.208 12.549 C 288.079 12.629,287.341 12.597,290.101 13.509 C 290.856 13.759,293.211 14.851,293.333 15.009 C 293.379 15.068,293.599 15.213,293.823 15.331 C 295.010 15.957,296.569 17.820,297.243 19.417 C 300.066 26.114,297.652 33.310,291.667 36.037 C 287.734 37.828,287.667 37.833,267.162 37.833 L 249.833 37.833 249.833 56.583 L 249.833 75.333 256.583 75.333 L 263.333 75.333 263.333 62.667 L 263.333 50.000 271.574 50.000 L 279.815 50.000 280.576 50.958 C 280.994 51.485,281.410 52.007,281.501 52.118 C 281.592 52.229,281.667 52.364,281.667 52.420 C 281.667 52.475,281.910 52.848,282.208 53.248 C 282.506 53.649,283.387 54.891,284.167 56.007 C 284.946 57.124,285.940 58.514,286.375 59.096 C 286.810 59.678,287.167 60.201,287.167 60.258 C 287.167 60.314,287.429 60.681,287.750 61.072 C 288.071 61.464,288.333 61.836,288.333 61.899 C 288.333 61.962,288.412 62.105,288.508 62.215 C 288.717 62.456,289.791 63.957,291.500 66.397 C 292.188 67.379,293.106 68.685,293.541 69.299 C 293.976 69.914,294.576 70.772,294.874 71.206 C 295.975 72.807,296.919 74.085,297.041 74.139 C 297.110 74.169,297.167 74.280,297.167 74.384 C 297.167 74.488,297.366 74.744,297.609 74.953 L 298.052 75.333 305.859 75.333 C 312.601 75.333,313.667 75.300,313.667 75.089 C 313.667 74.842,310.712 70.630,310.466 70.528 C 310.393 70.497,310.333 70.400,310.333 70.312 C 310.333 70.132,308.985 68.281,308.792 68.194 C 308.723 68.164,308.667 68.064,308.667 67.973 C 308.667 67.882,308.289 67.307,307.827 66.695 C 307.365 66.084,306.188 64.458,305.212 63.083 C 304.236 61.708,303.376 60.558,303.302 60.528 C 303.227 60.497,303.167 60.401,303.167 60.313 C 303.167 60.226,302.810 59.681,302.375 59.103 C 301.940 58.524,301.270 57.608,300.887 57.067 C 298.570 53.793,297.923 52.911,297.802 52.861 C 297.728 52.831,297.667 52.726,297.667 52.628 C 297.667 52.531,297.404 52.131,297.083 51.739 C 296.762 51.348,296.500 50.980,296.500 50.923 C 296.500 50.866,296.426 50.729,296.335 50.618 C 296.018 50.232,294.901 48.746,294.523 48.208 C 294.166 47.698,294.161 47.659,294.446 47.560 C 297.144 46.624,300.280 45.247,301.417 44.499 C 301.692 44.318,302.029 44.120,302.167 44.058 C 302.590 43.867,304.531 42.311,305.559 41.339 C 313.114 34.197,314.557 20.246,308.678 11.198 C 307.765 9.794,307.833 9.873,305.813 7.853 C 303.865 5.905,303.882 5.920,302.824 5.234 C 302.417 4.970,302.046 4.715,302.000 4.668 C 301.406 4.063,297.253 2.244,294.917 1.565 C 290.982 0.422,289.843 0.317,279.833 0.166 C 270.507 0.026,251.110 -0.005,250.292 0.119 M382.544 0.350 C 381.776 0.730,381.383 1.121,372.417 10.428 C 370.308 12.616,368.171 14.831,367.667 15.351 C 363.563 19.578,359.257 24.032,358.741 24.583 C 358.398 24.950,356.498 26.921,354.517 28.962 C 352.537 31.004,349.887 33.742,348.628 35.046 L 346.340 37.417 346.337 18.792 L 346.333 0.167 339.750 0.167 L 333.167 0.167 333.167 37.750 L 333.167 75.333 339.750 75.333 L 346.333 75.333 346.333 67.004 C 346.333 59.125,346.350 58.647,346.649 58.156 C 346.912 57.723,348.170 56.307,350.500 53.823 C 352.478 51.714,353.150 50.994,354.769 49.248 C 355.787 48.149,356.800 47.053,357.019 46.813 C 357.238 46.573,358.249 45.486,359.265 44.397 C 360.282 43.308,361.520 41.976,362.015 41.438 C 362.511 40.899,363.179 40.183,363.500 39.846 C 363.821 39.509,364.871 38.377,365.833 37.331 C 368.213 34.743,369.294 33.579,370.083 32.755 C 370.450 32.372,371.537 31.205,372.500 30.162 C 375.295 27.133,376.041 26.329,376.750 25.580 C 378.282 23.963,379.346 22.816,380.919 21.086 C 381.834 20.078,382.883 18.942,383.250 18.561 C 383.617 18.179,384.218 17.541,384.585 17.142 C 384.953 16.743,386.265 15.329,387.500 14.000 C 388.735 12.671,390.047 11.258,390.415 10.861 C 390.782 10.464,391.346 9.859,391.667 9.518 C 392.272 8.872,395.313 5.598,396.791 4.000 C 397.258 3.496,398.169 2.521,398.816 1.833 C 400.176 0.390,400.222 0.247,399.375 0.107 C 397.470 -0.208,383.257 -0.003,382.544 0.350 M83.333 6.417 L 83.333 12.667 114.250 12.667 L 145.167 12.667 145.167 6.417 L 145.167 0.167 114.250 0.167 L 83.333 0.167 83.333 6.417 M107.611 25.111 C 107.550 25.172,107.500 36.497,107.500 50.278 L 107.500 75.333 114.250 75.333 L 121.000 75.333 121.000 50.167 L 121.000 25.000 114.361 25.000 C 110.710 25.000,107.672 25.050,107.611 25.111 M46.500 38.235 C 46.500 40.397,46.040 44.072,45.583 45.569 C 44.686 48.501,44.633 48.638,43.550 50.770 C 42.334 53.162,40.978 55.017,39.065 56.905 C 38.230 57.729,36.986 58.833,36.892 58.833 C 36.845 58.833,36.493 59.084,36.111 59.391 C 35.729 59.698,35.304 59.998,35.167 60.059 C 35.029 60.120,34.692 60.314,34.417 60.490 C 33.750 60.915,31.202 62.167,31.003 62.167 C 30.916 62.167,30.598 62.270,30.297 62.397 C 26.957 63.802,26.302 63.859,12.375 63.951 L -0.000 64.033 -0.000 69.683 L 0.000 75.333 15.470 75.333 C 27.973 75.333,31.082 75.290,31.679 75.109 C 32.085 74.985,32.979 74.715,33.667 74.508 C 34.959 74.118,35.853 73.802,36.797 73.400 C 37.098 73.272,37.428 73.167,37.529 73.167 C 38.264 73.167,43.605 70.181,46.213 68.313 C 50.408 65.308,54.109 60.779,56.753 55.417 C 57.975 52.936,58.188 52.422,58.857 50.333 C 59.047 49.737,59.306 48.971,59.432 48.630 C 60.151 46.676,60.659 42.693,60.663 38.958 L 60.667 36.167 53.583 36.167 L 46.500 36.167 46.500 38.235 M372.817 44.208 C 372.139 44.965,371.360 45.819,371.084 46.107 C 370.248 46.981,369.319 47.985,367.329 50.167 C 366.284 51.313,365.370 52.275,365.298 52.306 C 364.851 52.495,365.566 53.957,366.575 54.917 C 366.671 55.008,367.196 55.646,367.741 56.333 C 368.287 57.021,368.778 57.621,368.834 57.667 C 368.889 57.712,369.373 58.313,369.909 59.000 C 370.444 59.688,370.968 60.325,371.072 60.417 C 371.176 60.508,371.624 61.057,372.066 61.636 C 372.508 62.215,373.048 62.890,373.266 63.136 C 373.483 63.382,373.721 63.658,373.794 63.750 C 374.974 65.236,375.989 66.495,376.276 66.831 C 376.831 67.480,378.455 69.459,379.833 71.169 C 381.409 73.122,382.230 74.104,382.862 74.792 L 383.360 75.333 391.514 75.333 C 395.998 75.333,399.667 75.276,399.667 75.207 C 399.667 75.137,399.496 74.893,399.288 74.665 C 399.080 74.437,398.019 73.087,396.932 71.667 C 395.844 70.246,394.852 69.000,394.727 68.898 C 394.602 68.797,394.500 68.657,394.500 68.588 C 394.500 68.520,394.355 68.303,394.177 68.107 C 393.743 67.626,392.794 66.427,390.334 63.250 C 389.199 61.783,388.227 60.546,388.176 60.500 C 388.124 60.454,387.864 60.117,387.599 59.750 C 387.334 59.383,387.031 59.008,386.927 58.917 C 386.822 58.825,385.989 57.775,385.076 56.584 C 384.164 55.393,383.285 54.287,383.125 54.126 C 382.965 53.965,382.833 53.776,382.833 53.707 C 382.833 53.637,382.665 53.393,382.458 53.165 C 382.252 52.937,381.878 52.475,381.628 52.139 C 381.377 51.804,381.075 51.429,380.957 51.306 C 380.839 51.184,379.845 49.921,378.750 48.500 C 375.612 44.432,374.316 42.836,374.149 42.834 C 374.093 42.834,373.494 43.452,372.817 44.208 " stroke="none" fill="#fcfcfc" fill-rule="evenodd"></path><path id="path1" d="M192.001 0.042 C 192.001 0.065,192.232 0.683,192.514 1.417 C 192.796 2.150,193.090 2.975,193.168 3.250 C 193.293 3.696,193.835 5.224,194.851 8.000 C 195.035 8.504,195.250 9.142,195.329 9.417 C 195.407 9.692,195.670 10.442,195.913 11.083 C 196.784 13.383,196.858 13.590,196.991 14.083 C 197.066 14.358,197.326 15.108,197.568 15.750 C 197.811 16.392,198.196 17.479,198.423 18.167 C 198.649 18.854,198.903 19.567,198.987 19.750 C 199.070 19.933,199.178 20.233,199.226 20.417 C 199.274 20.600,199.510 21.275,199.751 21.917 C 199.991 22.558,200.400 23.728,200.660 24.517 C 200.920 25.305,201.209 26.093,201.302 26.267 C 201.395 26.441,201.625 27.071,201.813 27.667 C 202.002 28.262,202.416 29.462,202.733 30.333 C 203.051 31.204,203.403 32.179,203.516 32.500 C 203.629 32.821,203.822 33.320,203.944 33.609 C 204.067 33.897,204.167 34.224,204.167 34.333 C 204.167 34.443,204.267 34.769,204.389 35.058 C 204.512 35.347,204.707 35.846,204.823 36.167 C 204.939 36.487,205.292 37.462,205.609 38.333 C 205.926 39.204,206.264 40.179,206.360 40.500 C 206.456 40.821,206.594 41.158,206.667 41.250 C 206.739 41.342,206.877 41.679,206.972 42.000 C 207.173 42.674,207.612 43.932,207.816 44.417 C 208.049 44.972,208.609 46.499,209.162 48.083 C 209.640 49.454,209.959 50.277,210.602 51.797 C 210.729 52.098,210.833 52.418,210.833 52.507 C 210.833 52.596,211.100 53.362,211.427 54.209 C 212.294 56.461,212.471 56.923,212.768 57.708 C 212.915 58.098,213.170 58.754,213.333 59.167 C 213.497 59.579,213.743 60.217,213.880 60.583 C 214.569 62.429,215.158 63.928,215.529 64.783 C 215.697 65.167,215.833 65.568,215.833 65.673 C 215.833 65.779,215.938 66.064,216.065 66.308 C 216.193 66.551,216.426 67.087,216.583 67.500 C 216.874 68.263,217.055 68.720,218.002 71.083 C 218.555 72.463,219.124 73.852,219.520 74.792 L 219.748 75.333 226.957 75.333 C 231.499 75.333,234.167 75.274,234.167 75.172 C 234.167 74.972,233.504 72.981,232.916 71.417 C 232.293 69.756,232.039 69.054,231.652 67.917 C 231.311 66.913,230.607 65.039,230.338 64.417 C 230.259 64.233,230.157 63.933,230.111 63.750 C 230.066 63.567,229.865 63.004,229.666 62.500 C 229.466 61.996,229.202 61.283,229.079 60.917 C 228.956 60.550,228.695 59.837,228.500 59.333 C 228.305 58.829,228.043 58.117,227.919 57.750 C 227.687 57.069,226.653 54.218,226.256 53.167 C 226.135 52.846,225.943 52.321,225.831 52.000 C 225.718 51.679,225.529 51.192,225.411 50.917 C 225.293 50.642,225.159 50.267,225.112 50.083 C 225.066 49.900,224.867 49.337,224.669 48.833 C 224.472 48.329,223.931 46.867,223.468 45.583 C 223.004 44.300,222.527 42.987,222.408 42.667 C 222.142 41.952,221.112 39.132,220.826 38.333 C 220.711 38.012,220.552 37.600,220.473 37.417 C 220.393 37.233,220.260 36.858,220.177 36.583 C 220.093 36.308,219.864 35.671,219.668 35.167 C 219.472 34.662,219.210 33.950,219.086 33.583 C 218.962 33.217,218.631 32.293,218.350 31.531 C 218.069 30.768,217.730 29.831,217.597 29.447 C 217.465 29.064,217.160 28.225,216.921 27.583 C 216.681 26.942,216.255 25.779,215.973 25.000 C 215.691 24.221,215.361 23.321,215.238 23.000 C 214.779 21.798,212.780 16.312,212.505 15.500 C 212.427 15.271,212.166 14.558,211.924 13.917 C 211.683 13.275,211.269 12.150,211.005 11.417 C 210.741 10.683,210.363 9.671,210.165 9.167 C 209.967 8.662,209.742 8.025,209.667 7.750 C 209.591 7.475,209.365 6.837,209.165 6.333 C 208.965 5.829,208.618 4.892,208.393 4.250 C 208.169 3.608,207.883 2.821,207.758 2.500 C 207.633 2.179,207.365 1.485,207.163 0.958 L 206.795 0.000 199.397 0.000 C 195.329 0.000,192.000 0.019,192.001 0.042 M184.833 17.752 C 184.833 17.891,184.762 18.135,184.675 18.294 C 184.520 18.578,184.244 19.240,183.167 21.917 C 182.871 22.650,182.458 23.662,182.247 24.167 C 182.037 24.671,181.661 25.608,181.411 26.250 C 181.161 26.892,180.830 27.717,180.675 28.083 C 180.519 28.450,180.275 29.050,180.132 29.417 C 179.989 29.783,179.593 30.758,179.252 31.583 C 178.912 32.408,178.519 33.383,178.379 33.750 C 178.239 34.117,178.029 34.642,177.913 34.917 C 177.796 35.192,177.536 35.829,177.333 36.333 C 177.131 36.837,176.870 37.475,176.754 37.750 C 176.637 38.025,176.410 38.587,176.248 39.000 C 176.087 39.412,175.860 39.975,175.745 40.250 C 175.629 40.525,175.369 41.162,175.167 41.667 C 174.965 42.171,174.574 43.146,174.298 43.833 C 174.022 44.521,173.612 45.533,173.387 46.083 C 172.811 47.488,172.743 47.656,172.414 48.500 C 172.254 48.913,171.988 49.550,171.825 49.917 C 171.661 50.283,171.401 50.921,171.248 51.333 C 171.095 51.746,170.874 52.308,170.757 52.583 C 170.475 53.251,169.981 54.462,169.331 56.083 C 169.037 56.817,168.624 57.829,168.414 58.333 C 168.204 58.837,167.827 59.775,167.578 60.417 C 167.328 61.058,166.993 61.883,166.833 62.250 C 166.674 62.617,166.339 63.442,166.089 64.083 C 165.665 65.174,165.096 66.549,164.562 67.775 C 164.436 68.064,164.333 68.377,164.333 68.470 C 164.333 68.563,164.226 68.852,164.095 69.111 C 163.853 69.590,162.838 72.030,162.375 73.250 C 162.235 73.617,162.019 74.153,161.894 74.442 C 161.769 74.731,161.667 75.049,161.667 75.150 C 161.667 75.280,163.726 75.333,168.793 75.333 L 175.919 75.333 176.114 74.875 C 176.221 74.623,176.505 73.929,176.745 73.333 C 176.985 72.737,177.249 72.100,177.331 71.917 C 177.414 71.733,177.741 70.946,178.058 70.167 C 179.202 67.360,179.866 65.728,180.364 64.500 C 181.060 62.785,182.911 58.279,183.342 57.250 C 183.419 57.067,183.643 56.504,183.840 56.000 C 184.037 55.496,184.332 54.783,184.497 54.417 C 184.661 54.050,184.999 53.225,185.247 52.583 C 185.495 51.942,185.870 51.004,186.081 50.500 C 186.291 49.996,186.703 48.983,186.995 48.250 C 187.288 47.517,187.629 46.692,187.754 46.417 C 187.878 46.142,188.142 45.504,188.339 45.000 C 188.536 44.496,188.946 43.483,189.250 42.750 C 189.554 42.017,190.038 40.817,190.325 40.083 C 190.900 38.614,191.445 37.296,191.727 36.689 C 191.951 36.208,191.938 35.168,191.701 34.545 C 191.604 34.291,191.328 33.558,191.087 32.917 C 190.846 32.275,190.582 31.600,190.501 31.417 C 190.419 31.233,190.165 30.558,189.936 29.917 C 189.707 29.275,189.359 28.337,189.164 27.833 C 188.968 27.329,188.745 26.729,188.667 26.500 C 188.589 26.271,188.380 25.708,188.202 25.250 C 188.024 24.792,187.485 23.367,187.003 22.083 C 186.521 20.800,185.980 19.375,185.800 18.917 C 185.619 18.458,185.432 17.952,185.383 17.792 C 185.275 17.434,184.833 17.403,184.833 17.752 " stroke="none" fill="#0434fc" fill-rule="evenodd"></path><path id="path2" d="" stroke="none" fill="#bc100fc" fill-rule="evenodd"></path><path id="path3" d="" stroke="none" fill="#bc100fc" fill-rule="evenodd"></path><path id="path4" d="" stroke="none" fill="#bc100fc" fill-rule="evenodd"></path></g></svg>